External Loads File
version=1
nRows=31
nColumns=13
Range=5.000000e-03-10 seconds
endheader
time 	forceRightX 	forceRightY 	forceRightZ 	pointRightX 	pointRightY 	pointRightZ 	forceLeftX 	forceLeftY 	forceLeftZ 	pointLeftX 	pointLeftY 	pointLeftZ 		
5.005000 132.852214 154.563111 -0.000000 0.224377 0.158017 -0.141257 -71.380424 116.447774 -0.000000 0.355238 0.486213 -0.382753
5.010000 117.215166 126.461071 -0.000000 0.214856 0.163755 -0.141983 -67.853037 150.988069 -0.000000 0.362019 0.481466 -0.383502
5.015000 118.999783 82.849301 -0.000000 0.205793 0.170086 -0.142666 -40.876907 196.420996 -0.000000 0.368025 0.476032 -0.384025
5.020000 106.134793 59.284653 -0.000000 0.197128 0.177166 -0.143244 -43.490629 236.654253 -0.000000 0.373559 0.469790 -0.384634
5.025000 99.602156 24.729225 -0.000000 0.188843 0.184951 -0.143910 -17.883483 284.236493 -0.000000 0.379049 0.462908 -0.385414
5.030000 88.832220 4.866680 -0.000000 0.180504 0.193123 -0.144960 -28.677710 331.333014 -0.000000 0.383861 0.455363 -0.385947
5.035000 77.768106 -23.410283 -0.000000 0.173761 0.201821 -0.145146 1.533301 383.138848 -0.000000 0.388302 0.447188 -0.386356
5.040000 69.007647 -38.580859 -0.000000 0.166975 0.210767 -0.145620 -18.370337 435.068852 -0.000000 0.392536 0.438355 -0.386525
5.045000 55.743950 -58.699630 -0.000000 0.160729 0.219852 -0.145808 12.450527 488.121916 -0.000000 0.396688 0.429240 -0.386603
5.050000 49.742554 -68.684591 -0.000000 0.155304 0.229276 -0.146186 -16.221062 540.099112 -0.000000 0.400666 0.419633 -0.386539
5.055000 34.760376 -81.775831 -0.000000 0.150363 0.238735 -0.146396 29.007503 589.822922 -0.000000 0.404501 0.409768 -0.386329
5.060000 31.788798 -86.270893 -0.000000 0.146327 0.248194 -0.146499 -9.083837 637.993261 -0.000000 0.407988 0.399709 -0.386058
5.065000 19.863225 -91.305144 -0.000000 0.142352 0.257655 -0.146885 25.436231 681.881781 -0.000000 0.411171 0.389533 -0.385770
5.070000 19.773365 -91.055562 -0.000000 0.139659 0.267244 -0.146768 -22.221792 722.677303 -0.000000 0.413901 0.379040 -0.385443
5.075000 9.549254 -90.772216 -0.000000 0.137404 0.276983 -0.146427 18.691828 759.608208 -0.000000 0.416231 0.368458 -0.385186
5.080000 11.486097 -87.258873 -0.000000 0.135897 0.286957 -0.146380 -34.396719 792.153198 -0.000000 0.418090 0.357731 -0.384891
5.085000 1.824040 -83.731485 -0.000000 0.135050 0.297056 -0.146591 27.471584 822.055121 -0.000000 0.419357 0.346828 -0.384734
5.090000 5.025587 -78.688645 -0.000000 0.134613 0.307306 -0.146649 -28.051490 848.631942 -0.000000 0.420100 0.335798 -0.384702
5.095000 -0.018584 -73.629027 -0.000000 0.134825 0.317613 -0.146697 10.927210 873.052344 -0.000000 0.420292 0.324764 -0.384741
5.100000 3.453330 -68.322383 -0.000000 0.135480 0.328060 -0.146807 -47.092653 893.877500 -0.000000 0.419895 0.313699 -0.384639
5.105000 -1.748199 -63.489244 -0.000000 0.136746 0.338702 -0.146990 12.357719 915.500228 -0.000000 0.418907 0.302668 -0.384755
5.110000 1.410027 -59.225380 -0.000000 0.138689 0.349304 -0.147139 -45.269583 933.798310 -0.000000 0.417411 0.291741 -0.384908
5.115000 -2.234705 -55.796476 -0.000000 0.140895 0.359938 -0.147219 4.608211 953.268981 -0.000000 0.415393 0.280979 -0.384954
5.120000 0.411501 -53.466025 -0.000000 0.143677 0.370407 -0.147570 -53.509883 969.381406 -0.000000 0.412873 0.270428 -0.385062
5.125000 -3.862735 -52.036175 -0.000000 0.147042 0.380907 -0.147677 10.263638 987.589314 -0.000000 0.409839 0.260144 -0.385024
5.130000 -1.994520 -51.898083 -0.000000 0.150968 0.391206 -0.147918 -47.846110 1002.342996 -0.000000 0.406376 0.250175 -0.384901
5.135000 -6.566009 -52.201143 -0.000000 0.155537 0.401259 -0.148027 9.779565 1017.919489 -0.000000 0.402429 0.240574 -0.384714
5.140000 -5.639005 -53.741126 -0.000000 0.160419 0.411137 -0.148289 -48.108013 1029.292233 -0.000000 0.397895 0.231360 -0.384482
5.145000 -12.758667 -54.572175 -0.000000 0.165904 0.420701 -0.148553 39.370917 1039.311737 -0.000000 0.392859 0.222512 -0.384246
5.150000 -12.909902 -57.067831 -0.000000 0.171795 0.429875 -0.148928 -13.448317 1046.095006 -0.000000 0.387322 0.214094 -0.384017
5.155000 -20.458961 -57.848872 -0.000000 0.178382 0.438624 -0.149072 62.936563 1046.339774 -0.000000 0.381280 0.206076 -0.383826
